<svg xmlns="http://www.w3.org/2000/svg" viewBox="0 0 1140.72 157.45"><defs><style>.cls-1{fill:none;stroke:#fff;stroke-miterlimit:10;stroke-width:11.34px;}.cls-2{font-size:141.73px;fill:#fff;font-family:Achieve-Regular, Achieve;}.cls-3{letter-spacing:-0.01em;}.cls-4{letter-spacing:0em;}.cls-5{letter-spacing:0em;}.cls-6{letter-spacing:-0.02em;}.cls-7{letter-spacing:0em;}</style></defs><title>Asset 2ecobicilogov1</title><g id="Layer_2" data-name="Layer 2"><g id="Layer_1-2" data-name="Layer 1"><path class="cls-1" d="M139.3,108.3a42.38,42.38,0,1,1,13.79-34.59"/><path class="cls-1" d="M210.88,44.82a42.39,42.39,0,1,1-15.19,35.4"/><line class="cls-1" x1="212.19" y1="43.46" x2="137.13" y2="110.35"/><path class="cls-1" d="M237.72,73.07,210,11.1a3.86,3.86,0,0,1,3.53-5.43h17"/><path class="cls-1" d="M149.89,58.78,131.07,16.13a3.17,3.17,0,0,1,2.9-4.46h11"/><path class="cls-1" d="M292.46,23.51,342.31,70a8.65,8.65,0,0,1,.05,12.61l-47.15,44.75"/><path class="cls-1" d="M58.27,23.82,8.42,70.28a8.65,8.65,0,0,0-.05,12.61l47.15,44.75"/><text class="cls-2" transform="translate(377.64 124.14)">B<tspan class="cls-3" x="113.38" y="0">i</tspan><tspan class="cls-4" x="152.22" y="0">c</tspan><tspan class="cls-5" x="253.41" y="0">i-D</tspan><tspan class="cls-6" x="477.07" y="0">e</tspan><tspan class="cls-7" x="579.54" y="0">vs</tspan></text></g></g></svg>