<svg xmlns="http://www.w3.org/2000/svg" viewBox="0 0 998.94 776.38"><defs><style>.cls-1{fill:#fff;}</style></defs><title>Asset 2</title><g id="Layer_2" data-name="Layer 2"><g id="Layer_1-2" data-name="Layer 1"><g id="Layer_2-2" data-name="Layer 2"><g id="svg3409"><path class="cls-1" d="M181.1,774.68v-51.5c0-19.7-12-32.6-32.6-32.6-10.3,0-21.5,3.4-29.2,14.6-6-9.4-14.6-14.6-27.5-14.6-8.6,0-17.2,2.6-24,12v-10.3h-18v82.4h18v-45.5c0-14.6,7.7-21.5,19.7-21.5s18,7.7,18,21.5v45.5h18v-45.5c0-14.6,8.6-21.5,19.7-21.5,12,0,18,7.7,18,21.5v45.5Zm267-82.4H418.9v-24.9h-18v24.9H384.6v16.3h16.3v37.8c0,18.9,7.7,30,28.3,30a48.38,48.38,0,0,0,22.3-6l-5.2-15.5a28.74,28.74,0,0,1-15.5,4.3c-8.6,0-12-5.2-12-13.7v-36.9H448v-16.3Zm152.8-1.8c-10.3,0-17.2,5.2-21.5,12v-10.3h-18v82.4h18v-46.4c0-13.7,6-21.5,17.2-21.5a55.14,55.14,0,0,1,11.2,1.7l5.2-17.2a71,71,0,0,0-12.1-.7ZM370,699.08c-8.6-6-20.6-8.6-33.5-8.6-20.6,0-34.3,10.3-34.3,26.6,0,13.7,10.3,21.5,28.3,24l8.6.9c9.4,1.7,14.6,4.3,14.6,8.6,0,6-6.9,10.3-18.9,10.3a47.44,47.44,0,0,1-27.5-8.6L298.7,766c9.4,6.9,22.3,10.3,35.2,10.3,24,0,37.8-11.2,37.8-26.6,0-14.6-11.2-22.3-28.3-24.9l-8.6-.9c-7.7-.9-13.7-2.6-13.7-7.7,0-6,6-9.4,15.5-9.4,10.3,0,20.6,4.3,25.8,6.9l7.6-14.6Zm478.9-8.6c-10.3,0-17.2,5.2-21.5,12v-10.3h-18v82.4h18v-46.4c0-13.7,6-21.5,17.2-21.5a55.14,55.14,0,0,1,11.2,1.7l5.2-17c-3.5-.9-8.6-.9-12.1-.9Zm-230,43c0,24.9,17.2,42.9,43.8,42.9,12,0,20.6-2.6,29.2-9.4l-8.6-14.6c-6.9,5.2-13.7,7.7-21.5,7.7-14.6,0-24.9-10.3-24.9-26.6,0-15.5,10.3-25.8,24.9-26.6,7.7,0,14.6,2.6,21.5,7.7l8.6-14.6c-8.6-6.9-17.2-9.4-29.2-9.4-26.6-.1-43.8,18-43.8,42.9Zm166.5,0v-41.2h-18v10.3c-6-7.7-14.6-12-25.8-12-23.2,0-41.2,18-41.2,42.9s18,42.9,41.2,42.9c12,0,20.6-4.3,25.8-12v10.3h18Zm-66.1,0c0-14.6,9.4-26.6,24.9-26.6,14.6,0,24.9,11.2,24.9,26.6,0,14.6-10.3,26.6-24.9,26.6C728.8,759.18,719.3,748,719.3,733.48Zm-215.4-43c-24,0-41.2,17.2-41.2,42.9s17.2,42.9,42.1,42.9c12,0,24-3.4,33.5-11.2l-8.6-12.9c-6.9,5.2-15.5,8.6-24,8.6-11.2,0-22.3-5.2-24.9-19.7h60.9v-6.9c.8-26.5-14.7-43.7-37.8-43.7Zm0,15.5c11.2,0,18.9,6.9,20.6,19.7H481.6c1.7-11.1,9.4-19.7,22.3-19.7Zm447.2,27.5v-73.8h-18v42.9c-6-7.7-14.6-12-25.8-12-23.2,0-41.2,18-41.2,42.9s18,42.9,41.2,42.9c12,0,20.6-4.3,25.8-12v10.3h18v-41.2Zm-66.1,0c0-14.6,9.4-26.6,24.9-26.6,14.6,0,24.9,11.2,24.9,26.6,0,14.6-10.3,26.6-24.9,26.6C894.4,759.18,885,748,885,733.48Zm-602.6,0v-41.2h-18v10.3c-6-7.7-14.6-12-25.8-12-23.2,0-41.2,18-41.2,42.9s18,42.9,41.2,42.9c12,0,20.6-4.3,25.8-12v10.3h18Zm-66.9,0c0-14.6,9.4-26.6,24.9-26.6,14.6,0,24.9,11.2,24.9,26.6,0,14.6-10.3,26.6-24.9,26.6-15.5-.9-24.9-12.08-24.9-26.6Z"/><path class="cls-1" d="M382,309.38c0-98.7,46.4-186.3,117.6-242.9A307.35,307.35,0,0,0,309,.38C138.2.38,0,138.58,0,309.38s138.2,309,309,309a307.35,307.35,0,0,0,190.6-66.1C428.3,496.48,382,408.08,382,309.38Z"/><path id="path22" class="cls-1" d="M998.94,309c0,170.8-138.2,309-309,309a307.35,307.35,0,0,1-190.6-66.1c72.1-56.7,117.6-144.2,117.6-242.9s-46.4-186.3-117.6-242.9A306.85,306.85,0,0,1,689.84,0C860.74,0,998.94,139.1,998.94,309Z"/><path class="cls-1" d="M500,545.59c-69.29-54.24-114.3-140.17-114.3-236.12S430.81,128.37,500,73.35"/><path id="path22-2" class="cls-1" d="M499,545.84c70.08-55.12,114.31-140.17,114.31-236.12S568.24,128.62,499,73.6"/></g></g><polygon class="cls-1" points="507.64 537.04 490.64 537.04 490.64 82.31 506.3 82.31 507.64 82.31 507.64 537.04"/><polygon class="cls-1" points="499.15 74.91 490.64 82.31 507.64 82.31 499.15 74.91"/><polygon class="cls-1" points="490.64 537.04 499.11 544.19 507.64 537.04 490.64 537.04"/></g></g></svg>